<svg width="147" height="42" viewBox="0 0 147 42" fill="none" xmlns="http://www.w3.org/2000/svg">
<path d="M105.833 1.29581V8.00688C105.833 9.36693 105.477 10.3702 104.741 11.0168C104.016 11.6634 102.935 11.9867 101.486 11.9867C100.694 11.9867 99.9473 11.8864 99.2338 11.6857C98.5204 11.485 97.9407 11.1952 97.4947 10.8273L98.2194 9.74596C98.6095 10.0581 99.0889 10.3034 99.6686 10.4817C100.237 10.6601 100.839 10.7493 101.441 10.7493C102.422 10.7493 103.147 10.5375 103.615 10.1027C104.083 9.66792 104.317 9.02135 104.317 8.14066V7.54981C103.961 7.95114 103.526 8.25214 103.002 8.4528C102.478 8.65346 101.92 8.75379 101.307 8.75379C100.505 8.75379 99.7801 8.59772 99.1335 8.27443C98.4869 7.95114 97.9741 7.51637 97.6062 6.93668C97.2383 6.36813 97.0488 5.7104 97.0488 4.97464C97.0488 4.23887 97.2383 3.59229 97.6062 3.01259C97.9741 2.44405 98.4869 1.99813 99.1335 1.68599C99.7801 1.37385 100.505 1.21777 101.307 1.21777C101.943 1.21777 102.522 1.32925 103.069 1.54107C103.615 1.75288 104.05 2.07617 104.406 2.48864V1.28466H105.833V1.29581ZM102.946 7.19308C103.381 6.98127 103.726 6.68027 103.972 6.29009C104.217 5.89991 104.34 5.46515 104.34 4.97464C104.34 4.21658 104.072 3.61458 103.537 3.14637C103.002 2.67816 102.311 2.4552 101.475 2.4552C100.627 2.4552 99.925 2.6893 99.3899 3.14637C98.8548 3.61458 98.5872 4.21658 98.5872 4.97464C98.5872 5.46515 98.7099 5.89991 98.9551 6.29009C99.2004 6.68027 99.546 6.98127 99.9807 7.19308C100.416 7.40489 100.917 7.51637 101.475 7.51637C102.021 7.51637 102.511 7.40489 102.946 7.19308Z" fill="black"/>
<path d="M111.34 1.57451C111.853 1.3404 112.478 1.21777 113.213 1.21777V2.57782C113.135 2.56668 113.013 2.56668 112.868 2.56668C112.043 2.56668 111.407 2.78963 110.939 3.2467C110.471 3.70377 110.237 4.35035 110.237 5.18644V9.05478H108.721V1.28466H110.17V2.58897C110.437 2.1542 110.817 1.80861 111.34 1.57451Z" fill="black"/>
<path d="M122.522 5.65483H115.733C115.822 6.33485 116.145 6.89225 116.702 7.30473C117.249 7.7172 117.94 7.92901 118.765 7.92901C119.768 7.92901 120.571 7.61687 121.184 6.99258L122.02 7.90671C121.641 8.31919 121.173 8.63133 120.604 8.84314C120.036 9.05495 119.411 9.16643 118.72 9.16643C117.839 9.16643 117.048 8.99921 116.368 8.66478C115.688 8.33034 115.153 7.85097 114.785 7.24898C114.417 6.64699 114.228 5.95582 114.228 5.19776C114.228 4.45085 114.406 3.77082 114.774 3.15768C115.142 2.5557 115.632 2.07633 116.279 1.74189C116.914 1.40745 117.639 1.24023 118.43 1.24023C119.233 1.24023 119.946 1.40745 120.571 1.74189C121.195 2.07633 121.686 2.5557 122.042 3.15768C122.399 3.75967 122.566 4.462 122.566 5.24235C122.555 5.33154 122.544 5.47646 122.522 5.65483ZM116.602 3.02391C116.112 3.43639 115.822 3.97148 115.744 4.64036H121.106C121.028 3.98263 120.738 3.44753 120.247 3.03506C119.757 2.62258 119.155 2.41077 118.43 2.41077C117.706 2.41077 117.093 2.62258 116.602 3.02391Z" fill="black"/>
<path d="M132.188 5.65483H125.399C125.488 6.33485 125.811 6.89225 126.368 7.30473C126.915 7.7172 127.606 7.92901 128.431 7.92901C129.434 7.92901 130.237 7.61687 130.85 6.99258L131.686 7.90671C131.307 8.31919 130.839 8.63133 130.27 8.84314C129.702 9.05495 129.077 9.16643 128.386 9.16643C127.505 9.16643 126.714 8.99921 126.034 8.66478C125.354 8.33034 124.819 7.85097 124.451 7.24898C124.083 6.64699 123.894 5.95582 123.894 5.19776C123.894 4.45085 124.072 3.77082 124.44 3.15768C124.808 2.5557 125.298 2.07633 125.945 1.74189C126.58 1.40745 127.305 1.24023 128.096 1.24023C128.899 1.24023 129.612 1.40745 130.237 1.74189C130.861 2.07633 131.352 2.5557 131.708 3.15768C132.065 3.75967 132.232 4.462 132.232 5.24235C132.221 5.33154 132.21 5.47646 132.188 5.65483ZM126.257 3.02391C125.766 3.43639 125.477 3.97148 125.399 4.64036H130.761C130.683 3.98263 130.393 3.44753 129.902 3.03506C129.412 2.62258 128.81 2.41077 128.085 2.41077C127.361 2.41077 126.747 2.62258 126.257 3.02391Z" fill="black"/>
<path d="M141.317 2.08691C141.942 2.65545 142.254 3.49155 142.254 4.60634V9.07667H140.738V4.76241C140.738 4.0155 140.548 3.44696 140.158 3.05678C139.768 2.67775 139.21 2.48823 138.486 2.48823C137.661 2.48823 137.014 2.71119 136.546 3.15711C136.078 3.60303 135.833 4.23846 135.833 5.07456V9.07667H134.316V1.30655H135.766V2.47709C136.067 2.07576 136.479 1.76361 137.003 1.5518C137.527 1.33999 138.118 1.22852 138.776 1.22852C139.846 1.22852 140.693 1.50721 141.317 2.08691Z" fill="black"/>
<path d="M0.250977 27.1031C0.250977 14.963 7.90962 3.82617 19.5927 3.82617C27.6972 3.82617 32.6024 9.53393 32.6024 18.5303C32.6024 30.6705 24.9994 41.8073 13.3498 41.8073C5.22296 41.7961 0.250977 36.0549 0.250977 27.1031ZM25.9247 18.051C25.9247 12.3321 23.6951 9.07686 18.9795 9.07686C11.6553 9.07686 6.9509 18.1401 6.9509 27.549C6.9509 33.2791 9.20279 36.5566 13.9741 36.5566C21.2983 36.5454 25.9247 27.4821 25.9247 18.051Z" fill="#687C35"/>
<path d="M33.3715 33.7699C33.3715 32.7889 33.4941 31.741 33.8174 30.537L39.4472 6.3125H30.3281L31.3983 1.56348H46.9163L40.1272 31.0944C39.9711 31.7521 39.8485 32.4879 39.8485 33.3574C39.8485 35.7877 41.4872 36.8245 43.7837 36.8245C45.6454 36.8245 47.0947 36.412 49.1347 35.4867L50.5728 40.0016C47.7301 41.2391 44.9877 41.7965 41.8774 41.7965C36.9277 41.7965 33.3715 38.9649 33.3715 33.7699Z" fill="#687C35"/>
<path d="M55.2772 34.3828C55.2772 33.3683 55.4779 32.3538 55.7678 31.1944L59.0341 18.352H48.7334L49.8036 13.603H66.5367L62.1444 31.5958C61.9883 32.1532 61.8991 32.7106 61.8991 33.1899C61.8991 35.7651 63.5267 36.813 65.9236 36.813C67.5512 36.813 69.0673 36.3337 71.0628 35.5533L72.4563 40.0794C69.9145 41.1273 67.4062 41.785 63.9727 41.785C58.7666 41.7962 55.2772 39.1206 55.2772 34.3828ZM59.5469 4.80723C59.5469 2.34353 61.8545 0.203125 64.6638 0.203125C67.2613 0.203125 69.0673 1.52973 69.0673 3.90425C69.0673 6.52402 66.7374 8.50835 63.8946 8.50835C61.5647 8.50835 59.5469 7.25978 59.5469 4.80723Z" fill="#687C35"/>
<path d="M102.946 13.6025H96.5586L87.696 28.2955C86.0015 31.0937 84.3516 33.9253 82.9916 36.5673H82.7463C82.3115 33.8472 81.8991 31.0602 81.3863 28.329L78.4878 13.6025H72.0889L78.1533 41.1268H85.7451L93.2254 29.2543C93.3926 22.3983 97.2387 16.579 102.946 13.6025Z" fill="#687C35"/>
<path d="M47.0386 31.5737C47.0163 30.3809 46.5593 29.8903 45.8792 26.0777C45.6897 25.0298 45.3441 21.7969 45.411 19.0322C45.0654 21.7635 44.2405 24.9295 43.8949 25.944C42.6575 29.6228 42.1224 30.0576 41.9217 31.2281C41.8994 31.3953 41.8771 31.5737 41.8548 31.7743C41.7434 33.1901 42.5683 34.1377 43.6385 34.461C43.828 34.5167 44.0287 34.5613 44.2405 34.5725C44.4412 34.5836 44.653 34.5725 44.8536 34.539C45.9573 34.3718 46.916 33.5246 47.0163 32.1088C47.0386 31.9193 47.0386 31.7409 47.0386 31.5737Z" fill="#687C35"/>
<path d="M116.725 37.2483L116.234 36.7577L118.709 34.1826L118.553 33.9039C115.811 35.7544 112.712 37.1256 109.066 37.1256C104.507 37.1256 101.185 34.7177 101.185 29.4781C101.185 29.3109 101.207 29.1548 101.207 28.9876H122.555C122.734 28.5306 122.979 27.6164 123.169 26.5351C121.619 25.0747 120.883 23.3468 120.883 21.2844C120.883 19.9355 121.195 18.6981 121.786 17.5944C119.913 14.7071 116.502 12.9346 111.786 12.9346C102.768 12.9346 94.7412 19.8352 94.7412 29.7457C94.7412 37.7722 100.003 41.7966 107.651 41.7966C111.954 41.7966 115.867 40.693 118.921 39.0542C118.13 38.508 117.383 37.906 116.725 37.2483ZM111.552 17.6056C115.187 17.6056 117.483 19.7683 117.483 23.4694C117.483 23.9042 117.427 24.3612 117.349 24.796H102.021C103.749 20.1919 107.907 17.6056 111.552 17.6056Z" fill="#687C35"/>
<path d="M117.862 36.7466L121.508 32.9563C124.473 35.9105 128.364 37.2483 132.321 37.2483C135.755 37.2483 138.107 36.1892 138.107 33.9373C138.107 31.8192 135.955 30.972 131.318 29.5673C125.242 27.7056 122.243 25.2977 122.243 21.2844C122.243 15.7216 127.717 12.9346 134.06 12.9346C139.779 12.9346 143.882 14.9969 146.501 17.4272L142.934 21.0391C140.526 19.144 137.215 17.4941 133.358 17.4941C130.27 17.4941 128.353 18.5977 128.353 20.5598C128.353 22.5664 130.437 23.4805 135.108 24.9744C140.526 26.6577 144.216 28.6532 144.216 33.1347C144.216 39.2214 138.486 41.8078 131.206 41.8078C125.878 41.7966 120.895 39.8123 117.862 36.7466Z" fill="#687C35"/>
</svg>
