<svg width="132" height="38" viewBox="0 0 132 38" fill="none" xmlns="http://www.w3.org/2000/svg">
<path d="M94.7101 0.990391V7.01039C94.7101 8.23039 94.3901 9.13039 93.7301 9.71039C93.0801 10.2904 92.1101 10.5804 90.8101 10.5804C90.1001 10.5804 89.4301 10.4904 88.7901 10.3104C88.1501 10.1304 87.6301 9.87039 87.2301 9.54039L87.8801 8.57039C88.2301 8.85039 88.6601 9.07039 89.1801 9.23039C89.6901 9.39039 90.2301 9.47039 90.7701 9.47039C91.6501 9.47039 92.3001 9.28039 92.7201 8.89039C93.1401 8.50039 93.3501 7.92039 93.3501 7.13039V6.58039C93.0301 6.94039 92.6401 7.21039 92.1701 7.39039C91.7001 7.57039 91.2001 7.66039 90.6501 7.66039C89.9301 7.66039 89.2801 7.52039 88.7001 7.23039C88.1201 6.94039 87.6601 6.55039 87.3301 6.03039C87.0001 5.52039 86.8301 4.93039 86.8301 4.27039C86.8301 3.61039 87.0001 3.03039 87.3301 2.51039C87.6601 2.00039 88.1201 1.60039 88.7001 1.32039C89.2801 1.04039 89.9301 0.900391 90.6501 0.900391C91.2201 0.900391 91.7401 1.00039 92.2301 1.19039C92.7201 1.38039 93.1101 1.67039 93.4301 2.04039V0.960392H94.7101V0.990391ZM92.1201 6.27039C92.5101 6.08039 92.8201 5.81039 93.0401 5.46039C93.2601 5.11039 93.3701 4.72039 93.3701 4.28039C93.3701 3.60039 93.1301 3.06039 92.6501 2.64039C92.1701 2.22039 91.5501 2.02039 90.8001 2.02039C90.0401 2.02039 89.4101 2.23039 88.9301 2.64039C88.4501 3.06039 88.2101 3.60039 88.2101 4.28039C88.2101 4.72039 88.3201 5.11039 88.5401 5.46039C88.7601 5.81039 89.0701 6.08039 89.4601 6.27039C89.8501 6.46039 90.3001 6.56039 90.8001 6.56039C91.2901 6.56039 91.7301 6.47039 92.1201 6.27039Z" fill="white"/>
<path d="M99.6498 1.23992C100.11 1.02992 100.67 0.919922 101.33 0.919922V2.13992C101.26 2.12992 101.15 2.12992 101.02 2.12992C100.28 2.12992 99.7098 2.32992 99.2898 2.73992C98.8698 3.14992 98.6598 3.72992 98.6598 4.47992V7.94992H97.2998V0.979923H98.5998V2.14992C98.8398 1.74992 99.1798 1.44992 99.6498 1.23992Z" fill="white"/>
<path d="M109.68 4.88969H103.59C103.67 5.49969 103.96 5.99969 104.46 6.36969C104.95 6.73969 105.57 6.92969 106.31 6.92969C107.21 6.92969 107.93 6.64969 108.48 6.08969L109.23 6.90969C108.89 7.27969 108.47 7.55969 107.96 7.74969C107.45 7.93969 106.89 8.03969 106.27 8.03969C105.48 8.03969 104.77 7.88969 104.16 7.58969C103.55 7.28969 103.07 6.85969 102.74 6.31969C102.41 5.77969 102.24 5.15969 102.24 4.47969C102.24 3.80969 102.4 3.19968 102.73 2.64968C103.06 2.10968 103.5 1.67968 104.08 1.37968C104.65 1.07968 105.3 0.929688 106.01 0.929688C106.73 0.929688 107.37 1.07968 107.93 1.37968C108.49 1.67968 108.93 2.10968 109.25 2.64968C109.57 3.18968 109.72 3.81969 109.72 4.51969C109.71 4.60969 109.7 4.72969 109.68 4.88969ZM104.37 2.53969C103.93 2.90969 103.67 3.38969 103.6 3.98969H108.41C108.34 3.39969 108.08 2.91969 107.64 2.54969C107.2 2.17969 106.66 1.98969 106.01 1.98969C105.36 1.98969 104.81 2.16969 104.37 2.53969Z" fill="white"/>
<path d="M118.35 4.88969H112.26C112.34 5.49969 112.63 5.99969 113.13 6.36969C113.62 6.73969 114.24 6.92969 114.98 6.92969C115.88 6.92969 116.6 6.64969 117.15 6.08969L117.9 6.90969C117.56 7.27969 117.14 7.55969 116.63 7.74969C116.12 7.93969 115.56 8.03969 114.94 8.03969C114.15 8.03969 113.44 7.88969 112.83 7.58969C112.22 7.28969 111.74 6.85969 111.41 6.31969C111.08 5.77969 110.91 5.15969 110.91 4.47969C110.91 3.80969 111.07 3.19968 111.4 2.64968C111.73 2.10968 112.17 1.67968 112.75 1.37968C113.32 1.07968 113.97 0.929688 114.68 0.929688C115.4 0.929688 116.04 1.07968 116.6 1.37968C117.16 1.67968 117.6 2.10968 117.92 2.64968C118.24 3.18968 118.39 3.81969 118.39 4.51969C118.38 4.60969 118.37 4.72969 118.35 4.88969ZM113.03 2.53969C112.59 2.90969 112.33 3.38969 112.26 3.98969H117.07C117 3.39969 116.74 2.91969 116.3 2.54969C115.86 2.17969 115.32 1.98969 114.67 1.98969C114.02 1.98969 113.47 2.16969 113.03 2.53969Z" fill="white"/>
<path d="M126.54 1.68992C127.1 2.19992 127.38 2.94992 127.38 3.94992V7.95992H126.02V4.08992C126.02 3.41992 125.85 2.90992 125.5 2.55992C125.15 2.21992 124.65 2.04992 124 2.04992C123.26 2.04992 122.68 2.24992 122.26 2.64992C121.84 3.04992 121.62 3.61992 121.62 4.36992V7.95992H120.26V0.989922H121.56V2.03992C121.83 1.67992 122.2 1.39992 122.67 1.20992C123.14 1.01992 123.67 0.919922 124.26 0.919922C125.22 0.919922 125.98 1.17992 126.54 1.68992Z" fill="white"/>
<path d="M0 24.13C0 13.24 6.87 3.25 17.35 3.25C24.62 3.25 29.02 8.37 29.02 16.44C29.02 27.33 22.2 37.32 11.75 37.32C4.46 37.32 0 32.16 0 24.13ZM23.03 16.01C23.03 10.88 21.03 7.96 16.8 7.96C10.23 7.96 6.01 16.09 6.01 24.53C6.01 29.67 8.03 32.61 12.31 32.61C18.88 32.61 23.03 24.47 23.03 16.01Z" fill="white"/>
<path d="M29.7105 30.1205C29.7105 29.2405 29.8205 28.3005 30.1105 27.2205L35.1605 5.49047H26.9805L27.9405 1.23047H41.8605L35.7705 27.7105C35.6305 28.3005 35.5205 28.9605 35.5205 29.7405C35.5205 31.9205 36.9905 32.8505 39.0505 32.8505C40.7205 32.8505 42.0205 32.4805 43.8505 31.6505L45.1405 35.7105C42.5905 36.8205 40.1305 37.3205 37.3405 37.3205C32.9005 37.3205 29.7105 34.7705 29.7105 30.1205Z" fill="white"/>
<path d="M49.3602 30.67C49.3602 29.76 49.5402 28.85 49.8002 27.81L52.7302 16.29H43.4902L44.4502 12.03H59.4602L55.5202 28.17C55.3802 28.67 55.3002 29.17 55.3002 29.6C55.3002 31.91 56.7602 32.85 58.9102 32.85C60.3702 32.85 61.7302 32.42 63.5202 31.72L64.7702 35.78C62.4902 36.72 60.2402 37.31 57.1602 37.31C52.4902 37.32 49.3602 34.91 49.3602 30.67ZM53.1902 4.13C53.1902 1.92 55.2602 0 57.7802 0C60.1102 0 61.7302 1.19 61.7302 3.32C61.7302 5.67 59.6402 7.45 57.0902 7.45C55.0002 7.46 53.1902 6.34 53.1902 4.13Z" fill="white"/>
<path d="M92.1202 12.0293H86.3902L78.4502 25.2093C76.9302 27.7193 75.4502 30.2593 74.2302 32.6293H74.0102C73.6202 30.1893 73.2502 27.6893 72.7902 25.2393L70.1902 12.0293H64.4502L69.8802 36.7093H76.6902L83.4002 26.0593C83.5502 19.9093 87.0002 14.6993 92.1202 12.0293Z" fill="white"/>
<path d="M41.9696 28.1406C41.9496 27.0706 41.5396 26.6306 40.9296 23.2106C40.7596 22.2706 40.4496 19.3706 40.5096 16.8906C40.1996 19.3406 39.4596 22.1806 39.1496 23.0906C38.0396 26.3906 37.5596 26.7806 37.3796 27.8306C37.3596 27.9806 37.3396 28.1406 37.3196 28.3206C37.2196 29.5906 37.9596 30.4406 38.9196 30.7306C39.0896 30.7806 39.2696 30.8206 39.4596 30.8306C39.6396 30.8406 39.8296 30.8306 40.0096 30.8006C40.9996 30.6506 41.8596 29.8906 41.9496 28.6206C41.9696 28.4506 41.9696 28.2906 41.9696 28.1406Z" fill="white"/>
<path d="M104.48 33.2299L104.05 32.7899L106.27 30.4799L106.13 30.2299C103.67 31.8899 100.89 33.1199 97.6195 33.1199C93.5295 33.1199 90.5495 30.9599 90.5495 26.2599C90.5495 26.1099 90.5695 25.9699 90.5695 25.8199H109.72C109.88 25.4099 110.1 24.5899 110.27 23.6199C108.88 22.3099 108.22 20.7599 108.22 18.9099C108.22 17.6999 108.5 16.5899 109.03 15.5999C107.35 13.0099 104.29 11.4199 100.06 11.4199C91.9695 11.4199 84.7695 17.6099 84.7695 26.4999C84.7695 33.6999 89.4895 37.3099 96.3495 37.3099C100.21 37.3099 103.72 36.3199 106.46 34.8499C105.74 34.3599 105.07 33.8299 104.48 33.2299ZM99.8395 15.6099C103.1 15.6099 105.16 17.5499 105.16 20.8699C105.16 21.2599 105.11 21.6699 105.04 22.0599H91.2895C92.8395 17.9399 96.5695 15.6099 99.8395 15.6099Z" fill="white"/>
<path d="M105.5 32.7897L108.77 29.3897C111.43 32.0397 114.92 33.2397 118.47 33.2397C121.55 33.2397 123.66 32.2897 123.66 30.2697C123.66 28.3697 121.73 27.6097 117.57 26.3497C112.12 24.6797 109.43 22.5197 109.43 18.9197C109.43 13.9297 114.34 11.4297 120.03 11.4297C125.16 11.4297 128.84 13.2797 131.19 15.4597L127.99 18.6997C125.83 16.9997 122.86 15.5197 119.4 15.5197C116.63 15.5197 114.91 16.5097 114.91 18.2697C114.91 20.0697 116.78 20.8897 120.97 22.2297C125.83 23.7397 129.14 25.5297 129.14 29.5497C129.14 35.0097 124 37.3297 117.47 37.3297C112.69 37.3197 108.22 35.5397 105.5 32.7897Z" fill="white"/>
</svg>
